<?xml version="1.0" encoding="UTF-8" ?>
<svg version="1.1" width="192" height="4" xmlns="http://www.w3.org/2000/svg" shape-rendering="crispEdges">
<rect x="2" y="0" width="1" height="1" fill="#38F3FF" />
<rect x="3" y="0" width="1" height="1" fill="#38F3FF" />
<rect x="4" y="0" width="1" height="1" fill="#38F3FF" />
<rect x="5" y="0" width="1" height="1" fill="#38F3FF" />
<rect x="10" y="0" width="1" height="1" fill="#38F3FF" />
<rect x="11" y="0" width="1" height="1" fill="#38F3FF" />
<rect x="12" y="0" width="1" height="1" fill="#38F3FF" />
<rect x="13" y="0" width="1" height="1" fill="#38F3FF" />
<rect x="18" y="0" width="1" height="1" fill="#38F3FF" />
<rect x="19" y="0" width="1" height="1" fill="#38F3FF" />
<rect x="20" y="0" width="1" height="1" fill="#38F3FF" />
<rect x="21" y="0" width="1" height="1" fill="#38F3FF" />
<rect x="26" y="0" width="1" height="1" fill="#38F3FF" />
<rect x="27" y="0" width="1" height="1" fill="#38F3FF" />
<rect x="28" y="0" width="1" height="1" fill="#38F3FF" />
<rect x="29" y="0" width="1" height="1" fill="#38F3FF" />
<rect x="34" y="0" width="1" height="1" fill="#38F3FF" />
<rect x="35" y="0" width="1" height="1" fill="#38F3FF" />
<rect x="36" y="0" width="1" height="1" fill="#38F3FF" />
<rect x="37" y="0" width="1" height="1" fill="#38F3FF" />
<rect x="42" y="0" width="1" height="1" fill="#38F3FF" />
<rect x="43" y="0" width="1" height="1" fill="#38F3FF" />
<rect x="44" y="0" width="1" height="1" fill="#38F3FF" />
<rect x="45" y="0" width="1" height="1" fill="#38F3FF" />
<rect x="48" y="0" width="1" height="1" fill="#38F3FF" />
<rect x="49" y="0" width="1" height="1" fill="#38F3FF" />
<rect x="50" y="0" width="1" height="1" fill="#38F3FF" />
<rect x="51" y="0" width="1" height="1" fill="#38F3FF" />
<rect x="52" y="0" width="1" height="1" fill="#38F3FF" />
<rect x="53" y="0" width="1" height="1" fill="#38F3FF" />
<rect x="56" y="0" width="1" height="1" fill="#38F3FF" />
<rect x="57" y="0" width="1" height="1" fill="#38F3FF" />
<rect x="58" y="0" width="1" height="1" fill="#38F3FF" />
<rect x="59" y="0" width="1" height="1" fill="#38F3FF" />
<rect x="60" y="0" width="1" height="1" fill="#38F3FF" />
<rect x="61" y="0" width="1" height="1" fill="#38F3FF" />
<rect x="64" y="0" width="1" height="1" fill="#38F3FF" />
<rect x="65" y="0" width="1" height="1" fill="#38F3FF" />
<rect x="66" y="0" width="1" height="1" fill="#38F3FF" />
<rect x="67" y="0" width="1" height="1" fill="#38F3FF" />
<rect x="68" y="0" width="1" height="1" fill="#38F3FF" />
<rect x="69" y="0" width="1" height="1" fill="#38F3FF" />
<rect x="72" y="0" width="1" height="1" fill="#38F3FF" />
<rect x="73" y="0" width="1" height="1" fill="#38F3FF" />
<rect x="74" y="0" width="1" height="1" fill="#38F3FF" />
<rect x="75" y="0" width="1" height="1" fill="#38F3FF" />
<rect x="76" y="0" width="1" height="1" fill="#38F3FF" />
<rect x="77" y="0" width="1" height="1" fill="#38F3FF" />
<rect x="80" y="0" width="1" height="1" fill="#38F3FF" />
<rect x="81" y="0" width="1" height="1" fill="#38F3FF" />
<rect x="82" y="0" width="1" height="1" fill="#38F3FF" />
<rect x="83" y="0" width="1" height="1" fill="#38F3FF" />
<rect x="84" y="0" width="1" height="1" fill="#38F3FF" />
<rect x="85" y="0" width="1" height="1" fill="#38F3FF" />
<rect x="88" y="0" width="1" height="1" fill="#38F3FF" />
<rect x="89" y="0" width="1" height="1" fill="#38F3FF" />
<rect x="90" y="0" width="1" height="1" fill="#38F3FF" />
<rect x="91" y="0" width="1" height="1" fill="#38F3FF" />
<rect x="92" y="0" width="1" height="1" fill="#38F3FF" />
<rect x="93" y="0" width="1" height="1" fill="#38F3FF" />
<rect x="98" y="0" width="1" height="1" fill="#38F3FF" />
<rect x="99" y="0" width="1" height="1" fill="#38F3FF" />
<rect x="100" y="0" width="1" height="1" fill="#38F3FF" />
<rect x="101" y="0" width="1" height="1" fill="#38F3FF" />
<rect x="106" y="0" width="1" height="1" fill="#38F3FF" />
<rect x="107" y="0" width="1" height="1" fill="#38F3FF" />
<rect x="108" y="0" width="1" height="1" fill="#38F3FF" />
<rect x="109" y="0" width="1" height="1" fill="#38F3FF" />
<rect x="114" y="0" width="1" height="1" fill="#38F3FF" />
<rect x="115" y="0" width="1" height="1" fill="#38F3FF" />
<rect x="116" y="0" width="1" height="1" fill="#38F3FF" />
<rect x="117" y="0" width="1" height="1" fill="#38F3FF" />
<rect x="122" y="0" width="1" height="1" fill="#38F3FF" />
<rect x="123" y="0" width="1" height="1" fill="#38F3FF" />
<rect x="124" y="0" width="1" height="1" fill="#38F3FF" />
<rect x="125" y="0" width="1" height="1" fill="#38F3FF" />
<rect x="130" y="0" width="1" height="1" fill="#38F3FF" />
<rect x="131" y="0" width="1" height="1" fill="#38F3FF" />
<rect x="132" y="0" width="1" height="1" fill="#38F3FF" />
<rect x="133" y="0" width="1" height="1" fill="#38F3FF" />
<rect x="138" y="0" width="1" height="1" fill="#38F3FF" />
<rect x="139" y="0" width="1" height="1" fill="#38F3FF" />
<rect x="140" y="0" width="1" height="1" fill="#38F3FF" />
<rect x="141" y="0" width="1" height="1" fill="#38F3FF" />
<rect x="144" y="0" width="1" height="1" fill="#38F3FF" />
<rect x="145" y="0" width="1" height="1" fill="#38F3FF" />
<rect x="146" y="0" width="1" height="1" fill="#38F3FF" />
<rect x="147" y="0" width="1" height="1" fill="#38F3FF" />
<rect x="148" y="0" width="1" height="1" fill="#38F3FF" />
<rect x="149" y="0" width="1" height="1" fill="#38F3FF" />
<rect x="150" y="0" width="1" height="1" fill="#38F3FF" />
<rect x="152" y="0" width="1" height="1" fill="#38F3FF" />
<rect x="153" y="0" width="1" height="1" fill="#38F3FF" />
<rect x="154" y="0" width="1" height="1" fill="#38F3FF" />
<rect x="155" y="0" width="1" height="1" fill="#38F3FF" />
<rect x="156" y="0" width="1" height="1" fill="#38F3FF" />
<rect x="157" y="0" width="1" height="1" fill="#38F3FF" />
<rect x="158" y="0" width="1" height="1" fill="#38F3FF" />
<rect x="160" y="0" width="1" height="1" fill="#38F3FF" />
<rect x="161" y="0" width="1" height="1" fill="#38F3FF" />
<rect x="162" y="0" width="1" height="1" fill="#38F3FF" />
<rect x="163" y="0" width="1" height="1" fill="#38F3FF" />
<rect x="164" y="0" width="1" height="1" fill="#38F3FF" />
<rect x="165" y="0" width="1" height="1" fill="#38F3FF" />
<rect x="166" y="0" width="1" height="1" fill="#38F3FF" />
<rect x="168" y="0" width="1" height="1" fill="#38F3FF" />
<rect x="169" y="0" width="1" height="1" fill="#38F3FF" />
<rect x="170" y="0" width="1" height="1" fill="#38F3FF" />
<rect x="171" y="0" width="1" height="1" fill="#38F3FF" />
<rect x="172" y="0" width="1" height="1" fill="#38F3FF" />
<rect x="173" y="0" width="1" height="1" fill="#38F3FF" />
<rect x="174" y="0" width="1" height="1" fill="#38F3FF" />
<rect x="176" y="0" width="1" height="1" fill="#38F3FF" />
<rect x="177" y="0" width="1" height="1" fill="#38F3FF" />
<rect x="178" y="0" width="1" height="1" fill="#38F3FF" />
<rect x="179" y="0" width="1" height="1" fill="#38F3FF" />
<rect x="180" y="0" width="1" height="1" fill="#38F3FF" />
<rect x="181" y="0" width="1" height="1" fill="#38F3FF" />
<rect x="182" y="0" width="1" height="1" fill="#38F3FF" />
<rect x="184" y="0" width="1" height="1" fill="#38F3FF" />
<rect x="185" y="0" width="1" height="1" fill="#38F3FF" />
<rect x="186" y="0" width="1" height="1" fill="#38F3FF" />
<rect x="187" y="0" width="1" height="1" fill="#38F3FF" />
<rect x="188" y="0" width="1" height="1" fill="#38F3FF" />
<rect x="189" y="0" width="1" height="1" fill="#38F3FF" />
<rect x="190" y="0" width="1" height="1" fill="#38F3FF" />
<rect x="1" y="1" width="1" height="1" fill="#38F3FF" />
<rect x="2" y="1" width="1" height="1" fill="#38F3FF" />
<rect x="3" y="1" width="1" height="1" fill="#FFFFFF" />
<rect x="4" y="1" width="1" height="1" fill="#FFFFFF" />
<rect x="5" y="1" width="1" height="1" fill="#38F3FF" />
<rect x="6" y="1" width="1" height="1" fill="#38F3FF" />
<rect x="9" y="1" width="1" height="1" fill="#38F3FF" />
<rect x="10" y="1" width="1" height="1" fill="#38F3FF" />
<rect x="11" y="1" width="1" height="1" fill="#FFFFFF" />
<rect x="12" y="1" width="1" height="1" fill="#FFFFFF" />
<rect x="13" y="1" width="1" height="1" fill="#38F3FF" />
<rect x="14" y="1" width="1" height="1" fill="#38F3FF" />
<rect x="17" y="1" width="1" height="1" fill="#38F3FF" />
<rect x="18" y="1" width="1" height="1" fill="#38F3FF" />
<rect x="19" y="1" width="1" height="1" fill="#FFFFFF" />
<rect x="20" y="1" width="1" height="1" fill="#FFFFFF" />
<rect x="21" y="1" width="1" height="1" fill="#38F3FF" />
<rect x="22" y="1" width="1" height="1" fill="#38F3FF" />
<rect x="25" y="1" width="1" height="1" fill="#38F3FF" />
<rect x="26" y="1" width="1" height="1" fill="#38F3FF" />
<rect x="27" y="1" width="1" height="1" fill="#FFFFFF" />
<rect x="28" y="1" width="1" height="1" fill="#FFFFFF" />
<rect x="29" y="1" width="1" height="1" fill="#38F3FF" />
<rect x="30" y="1" width="1" height="1" fill="#38F3FF" />
<rect x="33" y="1" width="1" height="1" fill="#38F3FF" />
<rect x="34" y="1" width="1" height="1" fill="#38F3FF" />
<rect x="35" y="1" width="1" height="1" fill="#FFFFFF" />
<rect x="36" y="1" width="1" height="1" fill="#FFFFFF" />
<rect x="37" y="1" width="1" height="1" fill="#38F3FF" />
<rect x="38" y="1" width="1" height="1" fill="#38F3FF" />
<rect x="41" y="1" width="1" height="1" fill="#38F3FF" />
<rect x="42" y="1" width="1" height="1" fill="#38F3FF" />
<rect x="43" y="1" width="1" height="1" fill="#FFFFFF" />
<rect x="44" y="1" width="1" height="1" fill="#FFFFFF" />
<rect x="45" y="1" width="1" height="1" fill="#38F3FF" />
<rect x="46" y="1" width="1" height="1" fill="#38F3FF" />
<rect x="49" y="1" width="1" height="1" fill="#38F3FF" />
<rect x="50" y="1" width="1" height="1" fill="#38F3FF" />
<rect x="51" y="1" width="1" height="1" fill="#38F3FF" />
<rect x="52" y="1" width="1" height="1" fill="#FFFFFF" />
<rect x="53" y="1" width="1" height="1" fill="#38F3FF" />
<rect x="54" y="1" width="1" height="1" fill="#38F3FF" />
<rect x="57" y="1" width="1" height="1" fill="#38F3FF" />
<rect x="58" y="1" width="1" height="1" fill="#38F3FF" />
<rect x="59" y="1" width="1" height="1" fill="#38F3FF" />
<rect x="60" y="1" width="1" height="1" fill="#FFFFFF" />
<rect x="61" y="1" width="1" height="1" fill="#38F3FF" />
<rect x="62" y="1" width="1" height="1" fill="#38F3FF" />
<rect x="65" y="1" width="1" height="1" fill="#38F3FF" />
<rect x="66" y="1" width="1" height="1" fill="#38F3FF" />
<rect x="67" y="1" width="1" height="1" fill="#38F3FF" />
<rect x="68" y="1" width="1" height="1" fill="#FFFFFF" />
<rect x="69" y="1" width="1" height="1" fill="#38F3FF" />
<rect x="70" y="1" width="1" height="1" fill="#38F3FF" />
<rect x="73" y="1" width="1" height="1" fill="#38F3FF" />
<rect x="74" y="1" width="1" height="1" fill="#38F3FF" />
<rect x="75" y="1" width="1" height="1" fill="#38F3FF" />
<rect x="76" y="1" width="1" height="1" fill="#FFFFFF" />
<rect x="77" y="1" width="1" height="1" fill="#38F3FF" />
<rect x="78" y="1" width="1" height="1" fill="#38F3FF" />
<rect x="81" y="1" width="1" height="1" fill="#38F3FF" />
<rect x="82" y="1" width="1" height="1" fill="#38F3FF" />
<rect x="83" y="1" width="1" height="1" fill="#38F3FF" />
<rect x="84" y="1" width="1" height="1" fill="#FFFFFF" />
<rect x="85" y="1" width="1" height="1" fill="#38F3FF" />
<rect x="86" y="1" width="1" height="1" fill="#38F3FF" />
<rect x="89" y="1" width="1" height="1" fill="#38F3FF" />
<rect x="90" y="1" width="1" height="1" fill="#38F3FF" />
<rect x="91" y="1" width="1" height="1" fill="#38F3FF" />
<rect x="92" y="1" width="1" height="1" fill="#FFFFFF" />
<rect x="93" y="1" width="1" height="1" fill="#38F3FF" />
<rect x="94" y="1" width="1" height="1" fill="#38F3FF" />
<rect x="97" y="1" width="1" height="1" fill="#38F3FF" />
<rect x="98" y="1" width="1" height="1" fill="#38F3FF" />
<rect x="99" y="1" width="1" height="1" fill="#FFFFFF" />
<rect x="100" y="1" width="1" height="1" fill="#FFFFFF" />
<rect x="101" y="1" width="1" height="1" fill="#38F3FF" />
<rect x="102" y="1" width="1" height="1" fill="#38F3FF" />
<rect x="105" y="1" width="1" height="1" fill="#38F3FF" />
<rect x="106" y="1" width="1" height="1" fill="#38F3FF" />
<rect x="107" y="1" width="1" height="1" fill="#FFFFFF" />
<rect x="108" y="1" width="1" height="1" fill="#FFFFFF" />
<rect x="109" y="1" width="1" height="1" fill="#38F3FF" />
<rect x="110" y="1" width="1" height="1" fill="#38F3FF" />
<rect x="113" y="1" width="1" height="1" fill="#38F3FF" />
<rect x="114" y="1" width="1" height="1" fill="#38F3FF" />
<rect x="115" y="1" width="1" height="1" fill="#FFFFFF" />
<rect x="116" y="1" width="1" height="1" fill="#FFFFFF" />
<rect x="117" y="1" width="1" height="1" fill="#38F3FF" />
<rect x="118" y="1" width="1" height="1" fill="#38F3FF" />
<rect x="121" y="1" width="1" height="1" fill="#38F3FF" />
<rect x="122" y="1" width="1" height="1" fill="#38F3FF" />
<rect x="123" y="1" width="1" height="1" fill="#FFFFFF" />
<rect x="124" y="1" width="1" height="1" fill="#FFFFFF" />
<rect x="125" y="1" width="1" height="1" fill="#38F3FF" />
<rect x="126" y="1" width="1" height="1" fill="#38F3FF" />
<rect x="129" y="1" width="1" height="1" fill="#38F3FF" />
<rect x="130" y="1" width="1" height="1" fill="#38F3FF" />
<rect x="131" y="1" width="1" height="1" fill="#FFFFFF" />
<rect x="132" y="1" width="1" height="1" fill="#FFFFFF" />
<rect x="133" y="1" width="1" height="1" fill="#38F3FF" />
<rect x="134" y="1" width="1" height="1" fill="#38F3FF" />
<rect x="137" y="1" width="1" height="1" fill="#38F3FF" />
<rect x="138" y="1" width="1" height="1" fill="#38F3FF" />
<rect x="139" y="1" width="1" height="1" fill="#FFFFFF" />
<rect x="140" y="1" width="1" height="1" fill="#FFFFFF" />
<rect x="141" y="1" width="1" height="1" fill="#38F3FF" />
<rect x="142" y="1" width="1" height="1" fill="#38F3FF" />
<rect x="146" y="1" width="1" height="1" fill="#38F3FF" />
<rect x="147" y="1" width="1" height="1" fill="#FFFFFF" />
<rect x="148" y="1" width="1" height="1" fill="#FFFFFF" />
<rect x="149" y="1" width="1" height="1" fill="#FFFFFF" />
<rect x="150" y="1" width="1" height="1" fill="#38F3FF" />
<rect x="154" y="1" width="1" height="1" fill="#38F3FF" />
<rect x="155" y="1" width="1" height="1" fill="#FFFFFF" />
<rect x="156" y="1" width="1" height="1" fill="#FFFFFF" />
<rect x="157" y="1" width="1" height="1" fill="#FFFFFF" />
<rect x="158" y="1" width="1" height="1" fill="#38F3FF" />
<rect x="162" y="1" width="1" height="1" fill="#38F3FF" />
<rect x="163" y="1" width="1" height="1" fill="#FFFFFF" />
<rect x="164" y="1" width="1" height="1" fill="#FFFFFF" />
<rect x="165" y="1" width="1" height="1" fill="#FFFFFF" />
<rect x="166" y="1" width="1" height="1" fill="#38F3FF" />
<rect x="170" y="1" width="1" height="1" fill="#38F3FF" />
<rect x="171" y="1" width="1" height="1" fill="#FFFFFF" />
<rect x="172" y="1" width="1" height="1" fill="#FFFFFF" />
<rect x="173" y="1" width="1" height="1" fill="#FFFFFF" />
<rect x="174" y="1" width="1" height="1" fill="#38F3FF" />
<rect x="178" y="1" width="1" height="1" fill="#38F3FF" />
<rect x="179" y="1" width="1" height="1" fill="#FFFFFF" />
<rect x="180" y="1" width="1" height="1" fill="#FFFFFF" />
<rect x="181" y="1" width="1" height="1" fill="#FFFFFF" />
<rect x="182" y="1" width="1" height="1" fill="#38F3FF" />
<rect x="186" y="1" width="1" height="1" fill="#38F3FF" />
<rect x="187" y="1" width="1" height="1" fill="#FFFFFF" />
<rect x="188" y="1" width="1" height="1" fill="#FFFFFF" />
<rect x="189" y="1" width="1" height="1" fill="#FFFFFF" />
<rect x="190" y="1" width="1" height="1" fill="#38F3FF" />
<rect x="2" y="2" width="1" height="1" fill="#38F3FF" />
<rect x="3" y="2" width="1" height="1" fill="#38F3FF" />
<rect x="4" y="2" width="1" height="1" fill="#FFFFFF" />
<rect x="5" y="2" width="1" height="1" fill="#FFFFFF" />
<rect x="6" y="2" width="1" height="1" fill="#38F3FF" />
<rect x="10" y="2" width="1" height="1" fill="#38F3FF" />
<rect x="11" y="2" width="1" height="1" fill="#38F3FF" />
<rect x="12" y="2" width="1" height="1" fill="#FFFFFF" />
<rect x="13" y="2" width="1" height="1" fill="#FFFFFF" />
<rect x="14" y="2" width="1" height="1" fill="#38F3FF" />
<rect x="18" y="2" width="1" height="1" fill="#38F3FF" />
<rect x="19" y="2" width="1" height="1" fill="#38F3FF" />
<rect x="20" y="2" width="1" height="1" fill="#FFFFFF" />
<rect x="21" y="2" width="1" height="1" fill="#FFFFFF" />
<rect x="22" y="2" width="1" height="1" fill="#38F3FF" />
<rect x="26" y="2" width="1" height="1" fill="#38F3FF" />
<rect x="27" y="2" width="1" height="1" fill="#38F3FF" />
<rect x="28" y="2" width="1" height="1" fill="#FFFFFF" />
<rect x="29" y="2" width="1" height="1" fill="#FFFFFF" />
<rect x="30" y="2" width="1" height="1" fill="#38F3FF" />
<rect x="34" y="2" width="1" height="1" fill="#38F3FF" />
<rect x="35" y="2" width="1" height="1" fill="#38F3FF" />
<rect x="36" y="2" width="1" height="1" fill="#FFFFFF" />
<rect x="37" y="2" width="1" height="1" fill="#FFFFFF" />
<rect x="38" y="2" width="1" height="1" fill="#38F3FF" />
<rect x="42" y="2" width="1" height="1" fill="#38F3FF" />
<rect x="43" y="2" width="1" height="1" fill="#38F3FF" />
<rect x="44" y="2" width="1" height="1" fill="#FFFFFF" />
<rect x="45" y="2" width="1" height="1" fill="#FFFFFF" />
<rect x="46" y="2" width="1" height="1" fill="#38F3FF" />
<rect x="48" y="2" width="1" height="1" fill="#38F3FF" />
<rect x="49" y="2" width="1" height="1" fill="#38F3FF" />
<rect x="50" y="2" width="1" height="1" fill="#38F3FF" />
<rect x="51" y="2" width="1" height="1" fill="#38F3FF" />
<rect x="52" y="2" width="1" height="1" fill="#FFFFFF" />
<rect x="53" y="2" width="1" height="1" fill="#FFFFFF" />
<rect x="54" y="2" width="1" height="1" fill="#38F3FF" />
<rect x="56" y="2" width="1" height="1" fill="#38F3FF" />
<rect x="57" y="2" width="1" height="1" fill="#38F3FF" />
<rect x="58" y="2" width="1" height="1" fill="#38F3FF" />
<rect x="59" y="2" width="1" height="1" fill="#38F3FF" />
<rect x="60" y="2" width="1" height="1" fill="#FFFFFF" />
<rect x="61" y="2" width="1" height="1" fill="#FFFFFF" />
<rect x="62" y="2" width="1" height="1" fill="#38F3FF" />
<rect x="64" y="2" width="1" height="1" fill="#38F3FF" />
<rect x="65" y="2" width="1" height="1" fill="#38F3FF" />
<rect x="66" y="2" width="1" height="1" fill="#38F3FF" />
<rect x="67" y="2" width="1" height="1" fill="#38F3FF" />
<rect x="68" y="2" width="1" height="1" fill="#FFFFFF" />
<rect x="69" y="2" width="1" height="1" fill="#FFFFFF" />
<rect x="70" y="2" width="1" height="1" fill="#38F3FF" />
<rect x="72" y="2" width="1" height="1" fill="#38F3FF" />
<rect x="73" y="2" width="1" height="1" fill="#38F3FF" />
<rect x="74" y="2" width="1" height="1" fill="#38F3FF" />
<rect x="75" y="2" width="1" height="1" fill="#38F3FF" />
<rect x="76" y="2" width="1" height="1" fill="#FFFFFF" />
<rect x="77" y="2" width="1" height="1" fill="#FFFFFF" />
<rect x="78" y="2" width="1" height="1" fill="#38F3FF" />
<rect x="80" y="2" width="1" height="1" fill="#38F3FF" />
<rect x="81" y="2" width="1" height="1" fill="#38F3FF" />
<rect x="82" y="2" width="1" height="1" fill="#38F3FF" />
<rect x="83" y="2" width="1" height="1" fill="#38F3FF" />
<rect x="84" y="2" width="1" height="1" fill="#FFFFFF" />
<rect x="85" y="2" width="1" height="1" fill="#FFFFFF" />
<rect x="86" y="2" width="1" height="1" fill="#38F3FF" />
<rect x="88" y="2" width="1" height="1" fill="#38F3FF" />
<rect x="89" y="2" width="1" height="1" fill="#38F3FF" />
<rect x="90" y="2" width="1" height="1" fill="#38F3FF" />
<rect x="91" y="2" width="1" height="1" fill="#38F3FF" />
<rect x="92" y="2" width="1" height="1" fill="#FFFFFF" />
<rect x="93" y="2" width="1" height="1" fill="#FFFFFF" />
<rect x="94" y="2" width="1" height="1" fill="#38F3FF" />
<rect x="98" y="2" width="1" height="1" fill="#38F3FF" />
<rect x="99" y="2" width="1" height="1" fill="#38F3FF" />
<rect x="100" y="2" width="1" height="1" fill="#FFFFFF" />
<rect x="101" y="2" width="1" height="1" fill="#FFFFFF" />
<rect x="102" y="2" width="1" height="1" fill="#38F3FF" />
<rect x="106" y="2" width="1" height="1" fill="#38F3FF" />
<rect x="107" y="2" width="1" height="1" fill="#38F3FF" />
<rect x="108" y="2" width="1" height="1" fill="#FFFFFF" />
<rect x="109" y="2" width="1" height="1" fill="#FFFFFF" />
<rect x="110" y="2" width="1" height="1" fill="#38F3FF" />
<rect x="114" y="2" width="1" height="1" fill="#38F3FF" />
<rect x="115" y="2" width="1" height="1" fill="#38F3FF" />
<rect x="116" y="2" width="1" height="1" fill="#FFFFFF" />
<rect x="117" y="2" width="1" height="1" fill="#FFFFFF" />
<rect x="118" y="2" width="1" height="1" fill="#38F3FF" />
<rect x="122" y="2" width="1" height="1" fill="#38F3FF" />
<rect x="123" y="2" width="1" height="1" fill="#38F3FF" />
<rect x="124" y="2" width="1" height="1" fill="#FFFFFF" />
<rect x="125" y="2" width="1" height="1" fill="#FFFFFF" />
<rect x="126" y="2" width="1" height="1" fill="#38F3FF" />
<rect x="130" y="2" width="1" height="1" fill="#38F3FF" />
<rect x="131" y="2" width="1" height="1" fill="#38F3FF" />
<rect x="132" y="2" width="1" height="1" fill="#FFFFFF" />
<rect x="133" y="2" width="1" height="1" fill="#FFFFFF" />
<rect x="134" y="2" width="1" height="1" fill="#38F3FF" />
<rect x="138" y="2" width="1" height="1" fill="#38F3FF" />
<rect x="139" y="2" width="1" height="1" fill="#38F3FF" />
<rect x="140" y="2" width="1" height="1" fill="#FFFFFF" />
<rect x="141" y="2" width="1" height="1" fill="#FFFFFF" />
<rect x="142" y="2" width="1" height="1" fill="#38F3FF" />
<rect x="145" y="2" width="1" height="1" fill="#38F3FF" />
<rect x="146" y="2" width="1" height="1" fill="#38F3FF" />
<rect x="147" y="2" width="1" height="1" fill="#38F3FF" />
<rect x="148" y="2" width="1" height="1" fill="#FFFFFF" />
<rect x="149" y="2" width="1" height="1" fill="#FFFFFF" />
<rect x="150" y="2" width="1" height="1" fill="#38F3FF" />
<rect x="153" y="2" width="1" height="1" fill="#38F3FF" />
<rect x="154" y="2" width="1" height="1" fill="#38F3FF" />
<rect x="155" y="2" width="1" height="1" fill="#38F3FF" />
<rect x="156" y="2" width="1" height="1" fill="#FFFFFF" />
<rect x="157" y="2" width="1" height="1" fill="#FFFFFF" />
<rect x="158" y="2" width="1" height="1" fill="#38F3FF" />
<rect x="161" y="2" width="1" height="1" fill="#38F3FF" />
<rect x="162" y="2" width="1" height="1" fill="#38F3FF" />
<rect x="163" y="2" width="1" height="1" fill="#38F3FF" />
<rect x="164" y="2" width="1" height="1" fill="#FFFFFF" />
<rect x="165" y="2" width="1" height="1" fill="#FFFFFF" />
<rect x="166" y="2" width="1" height="1" fill="#38F3FF" />
<rect x="169" y="2" width="1" height="1" fill="#38F3FF" />
<rect x="170" y="2" width="1" height="1" fill="#38F3FF" />
<rect x="171" y="2" width="1" height="1" fill="#38F3FF" />
<rect x="172" y="2" width="1" height="1" fill="#FFFFFF" />
<rect x="173" y="2" width="1" height="1" fill="#FFFFFF" />
<rect x="174" y="2" width="1" height="1" fill="#38F3FF" />
<rect x="177" y="2" width="1" height="1" fill="#38F3FF" />
<rect x="178" y="2" width="1" height="1" fill="#38F3FF" />
<rect x="179" y="2" width="1" height="1" fill="#38F3FF" />
<rect x="180" y="2" width="1" height="1" fill="#FFFFFF" />
<rect x="181" y="2" width="1" height="1" fill="#FFFFFF" />
<rect x="182" y="2" width="1" height="1" fill="#38F3FF" />
<rect x="185" y="2" width="1" height="1" fill="#38F3FF" />
<rect x="186" y="2" width="1" height="1" fill="#38F3FF" />
<rect x="187" y="2" width="1" height="1" fill="#38F3FF" />
<rect x="188" y="2" width="1" height="1" fill="#FFFFFF" />
<rect x="189" y="2" width="1" height="1" fill="#FFFFFF" />
<rect x="190" y="2" width="1" height="1" fill="#38F3FF" />
<rect x="0" y="3" width="1" height="1" fill="#38F3FF" />
<rect x="1" y="3" width="1" height="1" fill="#38F3FF" />
<rect x="2" y="3" width="1" height="1" fill="#38F3FF" />
<rect x="3" y="3" width="1" height="1" fill="#38F3FF" />
<rect x="4" y="3" width="1" height="1" fill="#38F3FF" />
<rect x="5" y="3" width="1" height="1" fill="#38F3FF" />
<rect x="8" y="3" width="1" height="1" fill="#38F3FF" />
<rect x="9" y="3" width="1" height="1" fill="#38F3FF" />
<rect x="10" y="3" width="1" height="1" fill="#38F3FF" />
<rect x="11" y="3" width="1" height="1" fill="#38F3FF" />
<rect x="12" y="3" width="1" height="1" fill="#38F3FF" />
<rect x="13" y="3" width="1" height="1" fill="#38F3FF" />
<rect x="16" y="3" width="1" height="1" fill="#38F3FF" />
<rect x="17" y="3" width="1" height="1" fill="#38F3FF" />
<rect x="18" y="3" width="1" height="1" fill="#38F3FF" />
<rect x="19" y="3" width="1" height="1" fill="#38F3FF" />
<rect x="20" y="3" width="1" height="1" fill="#38F3FF" />
<rect x="21" y="3" width="1" height="1" fill="#38F3FF" />
<rect x="24" y="3" width="1" height="1" fill="#38F3FF" />
<rect x="25" y="3" width="1" height="1" fill="#38F3FF" />
<rect x="26" y="3" width="1" height="1" fill="#38F3FF" />
<rect x="27" y="3" width="1" height="1" fill="#38F3FF" />
<rect x="28" y="3" width="1" height="1" fill="#38F3FF" />
<rect x="29" y="3" width="1" height="1" fill="#38F3FF" />
<rect x="32" y="3" width="1" height="1" fill="#38F3FF" />
<rect x="33" y="3" width="1" height="1" fill="#38F3FF" />
<rect x="34" y="3" width="1" height="1" fill="#38F3FF" />
<rect x="35" y="3" width="1" height="1" fill="#38F3FF" />
<rect x="36" y="3" width="1" height="1" fill="#38F3FF" />
<rect x="37" y="3" width="1" height="1" fill="#38F3FF" />
<rect x="40" y="3" width="1" height="1" fill="#38F3FF" />
<rect x="41" y="3" width="1" height="1" fill="#38F3FF" />
<rect x="42" y="3" width="1" height="1" fill="#38F3FF" />
<rect x="43" y="3" width="1" height="1" fill="#38F3FF" />
<rect x="44" y="3" width="1" height="1" fill="#38F3FF" />
<rect x="45" y="3" width="1" height="1" fill="#38F3FF" />
<rect x="49" y="3" width="1" height="1" fill="#38F3FF" />
<rect x="50" y="3" width="1" height="1" fill="#38F3FF" />
<rect x="51" y="3" width="1" height="1" fill="#38F3FF" />
<rect x="52" y="3" width="1" height="1" fill="#38F3FF" />
<rect x="53" y="3" width="1" height="1" fill="#38F3FF" />
<rect x="54" y="3" width="1" height="1" fill="#38F3FF" />
<rect x="57" y="3" width="1" height="1" fill="#38F3FF" />
<rect x="58" y="3" width="1" height="1" fill="#38F3FF" />
<rect x="59" y="3" width="1" height="1" fill="#38F3FF" />
<rect x="60" y="3" width="1" height="1" fill="#38F3FF" />
<rect x="61" y="3" width="1" height="1" fill="#38F3FF" />
<rect x="62" y="3" width="1" height="1" fill="#38F3FF" />
<rect x="65" y="3" width="1" height="1" fill="#38F3FF" />
<rect x="66" y="3" width="1" height="1" fill="#38F3FF" />
<rect x="67" y="3" width="1" height="1" fill="#38F3FF" />
<rect x="68" y="3" width="1" height="1" fill="#38F3FF" />
<rect x="69" y="3" width="1" height="1" fill="#38F3FF" />
<rect x="70" y="3" width="1" height="1" fill="#38F3FF" />
<rect x="73" y="3" width="1" height="1" fill="#38F3FF" />
<rect x="74" y="3" width="1" height="1" fill="#38F3FF" />
<rect x="75" y="3" width="1" height="1" fill="#38F3FF" />
<rect x="76" y="3" width="1" height="1" fill="#38F3FF" />
<rect x="77" y="3" width="1" height="1" fill="#38F3FF" />
<rect x="78" y="3" width="1" height="1" fill="#38F3FF" />
<rect x="81" y="3" width="1" height="1" fill="#38F3FF" />
<rect x="82" y="3" width="1" height="1" fill="#38F3FF" />
<rect x="83" y="3" width="1" height="1" fill="#38F3FF" />
<rect x="84" y="3" width="1" height="1" fill="#38F3FF" />
<rect x="85" y="3" width="1" height="1" fill="#38F3FF" />
<rect x="86" y="3" width="1" height="1" fill="#38F3FF" />
<rect x="89" y="3" width="1" height="1" fill="#38F3FF" />
<rect x="90" y="3" width="1" height="1" fill="#38F3FF" />
<rect x="91" y="3" width="1" height="1" fill="#38F3FF" />
<rect x="92" y="3" width="1" height="1" fill="#38F3FF" />
<rect x="93" y="3" width="1" height="1" fill="#38F3FF" />
<rect x="94" y="3" width="1" height="1" fill="#38F3FF" />
<rect x="96" y="3" width="1" height="1" fill="#38F3FF" />
<rect x="97" y="3" width="1" height="1" fill="#38F3FF" />
<rect x="98" y="3" width="1" height="1" fill="#38F3FF" />
<rect x="99" y="3" width="1" height="1" fill="#38F3FF" />
<rect x="100" y="3" width="1" height="1" fill="#38F3FF" />
<rect x="101" y="3" width="1" height="1" fill="#38F3FF" />
<rect x="104" y="3" width="1" height="1" fill="#38F3FF" />
<rect x="105" y="3" width="1" height="1" fill="#38F3FF" />
<rect x="106" y="3" width="1" height="1" fill="#38F3FF" />
<rect x="107" y="3" width="1" height="1" fill="#38F3FF" />
<rect x="108" y="3" width="1" height="1" fill="#38F3FF" />
<rect x="109" y="3" width="1" height="1" fill="#38F3FF" />
<rect x="112" y="3" width="1" height="1" fill="#38F3FF" />
<rect x="113" y="3" width="1" height="1" fill="#38F3FF" />
<rect x="114" y="3" width="1" height="1" fill="#38F3FF" />
<rect x="115" y="3" width="1" height="1" fill="#38F3FF" />
<rect x="116" y="3" width="1" height="1" fill="#38F3FF" />
<rect x="117" y="3" width="1" height="1" fill="#38F3FF" />
<rect x="120" y="3" width="1" height="1" fill="#38F3FF" />
<rect x="121" y="3" width="1" height="1" fill="#38F3FF" />
<rect x="122" y="3" width="1" height="1" fill="#38F3FF" />
<rect x="123" y="3" width="1" height="1" fill="#38F3FF" />
<rect x="124" y="3" width="1" height="1" fill="#38F3FF" />
<rect x="125" y="3" width="1" height="1" fill="#38F3FF" />
<rect x="128" y="3" width="1" height="1" fill="#38F3FF" />
<rect x="129" y="3" width="1" height="1" fill="#38F3FF" />
<rect x="130" y="3" width="1" height="1" fill="#38F3FF" />
<rect x="131" y="3" width="1" height="1" fill="#38F3FF" />
<rect x="132" y="3" width="1" height="1" fill="#38F3FF" />
<rect x="133" y="3" width="1" height="1" fill="#38F3FF" />
<rect x="136" y="3" width="1" height="1" fill="#38F3FF" />
<rect x="137" y="3" width="1" height="1" fill="#38F3FF" />
<rect x="138" y="3" width="1" height="1" fill="#38F3FF" />
<rect x="139" y="3" width="1" height="1" fill="#38F3FF" />
<rect x="140" y="3" width="1" height="1" fill="#38F3FF" />
<rect x="141" y="3" width="1" height="1" fill="#38F3FF" />
<rect x="144" y="3" width="1" height="1" fill="#38F3FF" />
<rect x="145" y="3" width="1" height="1" fill="#38F3FF" />
<rect x="146" y="3" width="1" height="1" fill="#38F3FF" />
<rect x="147" y="3" width="1" height="1" fill="#38F3FF" />
<rect x="148" y="3" width="1" height="1" fill="#38F3FF" />
<rect x="149" y="3" width="1" height="1" fill="#38F3FF" />
<rect x="152" y="3" width="1" height="1" fill="#38F3FF" />
<rect x="153" y="3" width="1" height="1" fill="#38F3FF" />
<rect x="154" y="3" width="1" height="1" fill="#38F3FF" />
<rect x="155" y="3" width="1" height="1" fill="#38F3FF" />
<rect x="156" y="3" width="1" height="1" fill="#38F3FF" />
<rect x="157" y="3" width="1" height="1" fill="#38F3FF" />
<rect x="160" y="3" width="1" height="1" fill="#38F3FF" />
<rect x="161" y="3" width="1" height="1" fill="#38F3FF" />
<rect x="162" y="3" width="1" height="1" fill="#38F3FF" />
<rect x="163" y="3" width="1" height="1" fill="#38F3FF" />
<rect x="164" y="3" width="1" height="1" fill="#38F3FF" />
<rect x="165" y="3" width="1" height="1" fill="#38F3FF" />
<rect x="168" y="3" width="1" height="1" fill="#38F3FF" />
<rect x="169" y="3" width="1" height="1" fill="#38F3FF" />
<rect x="170" y="3" width="1" height="1" fill="#38F3FF" />
<rect x="171" y="3" width="1" height="1" fill="#38F3FF" />
<rect x="172" y="3" width="1" height="1" fill="#38F3FF" />
<rect x="173" y="3" width="1" height="1" fill="#38F3FF" />
<rect x="176" y="3" width="1" height="1" fill="#38F3FF" />
<rect x="177" y="3" width="1" height="1" fill="#38F3FF" />
<rect x="178" y="3" width="1" height="1" fill="#38F3FF" />
<rect x="179" y="3" width="1" height="1" fill="#38F3FF" />
<rect x="180" y="3" width="1" height="1" fill="#38F3FF" />
<rect x="181" y="3" width="1" height="1" fill="#38F3FF" />
<rect x="184" y="3" width="1" height="1" fill="#38F3FF" />
<rect x="185" y="3" width="1" height="1" fill="#38F3FF" />
<rect x="186" y="3" width="1" height="1" fill="#38F3FF" />
<rect x="187" y="3" width="1" height="1" fill="#38F3FF" />
<rect x="188" y="3" width="1" height="1" fill="#38F3FF" />
<rect x="189" y="3" width="1" height="1" fill="#38F3FF" />
</svg>